<?xml version="1.0" encoding="utf-8"?>

<!-- License Agreement at http://iconmonstr.com/license/ -->

<!DOCTYPE svg PUBLIC "-//W3C//DTD SVG 1.1//EN" "http://www.w3.org/Graphics/SVG/1.1/DTD/svg11.dtd">
<svg version="1.1" xmlns="http://www.w3.org/2000/svg" xmlns:xlink="http://www.w3.org/1999/xlink" x="0px" y="0px"
	 width="512px" height="512px" viewBox="0 0 512 512" enable-background="new 0 0 512 512" xml:space="preserve">
<path id="smiley-confused-icon" d="M256,90c91.741,0,166,74.242,166,166c0,91.742-74.243,166-166,166c-91.74,0-166-74.243-166-166
	C90,164.259,164.244,90,256,90 M256,50C142.229,50,50,142.229,50,256c0,113.771,92.229,206,206,206c113.771,0,206-92.229,206-206
	C462,142.229,369.771,50,256,50z M199.666,181.5c-17.12,0-31,13.879-31,31s13.88,31,31,31c17.121,0,31-13.879,31-31
	S216.787,181.5,199.666,181.5z M316.333,181.5c-17.121,0-31,13.879-31,31s13.879,31,31,31s31-13.879,31-31
	S333.454,181.5,316.333,181.5z M354.276,306.527l-10.7-13.775c-67.863,50.646-89.436-60.862-179.519,29.221l12.187,14.317
	C245.946,279.928,266.152,394.651,354.276,306.527z"/>
</svg>
