<?xml version="1.0" encoding="utf-8"?>

<!-- License Agreement at http://iconmonstr.com/license/ -->

<!DOCTYPE svg PUBLIC "-//W3C//DTD SVG 1.1//EN" "http://www.w3.org/Graphics/SVG/1.1/DTD/svg11.dtd">
<svg version="1.1" xmlns="http://www.w3.org/2000/svg" xmlns:xlink="http://www.w3.org/1999/xlink" x="0px" y="0px"
	 width="512px" height="512px" viewBox="0 0 512 512" enable-background="new 0 0 512 512" xml:space="preserve">
<path id="smiley-dead-icon" d="M321.663,235.211l-22.852,22.85l-21.214-21.214l22.851-22.851l-22.851-22.851l21.214-21.214
	l22.852,22.852l22.85-22.851l21.214,21.214l-22.851,22.85l22.852,22.852l-21.214,21.214L321.663,235.211z M216.014,258.062
	l21.214-21.214l-22.852-22.852l22.851-22.85l-21.214-21.214l-22.85,22.851l-22.852-22.852l-21.214,21.214l22.851,22.851
	l-22.851,22.851l21.214,21.214l22.852-22.85L216.014,258.062z M462,256c0,113.771-92.229,206-206,206c-113.771,0-206-92.229-206-206
	c0-113.771,92.229-206,206-206C369.771,50,462,142.229,462,256z M422,256c0-91.757-74.259-166-166-166c-91.756,0-166,74.259-166,166
	c0,91.757,74.26,166,166,166C347.757,422,422,347.742,422,256z M337,335H179v-38h158V335z"/>
</svg>
